  0
SECTION
  2
HEADER
  9
$ACADVER
  1
AC1015
  9
$DWGCODEPAGE
  3
ANSI_1253
  9
$INSUNITS
 70
6
  0
ENDSEC
  0
SECTION
  2
TABLES
  0
TABLE
  2
LAYER
  5
2
100
AcDbSymbolTable
 70
7
  0
LAYER
  5
100
330
2
100
AcDbSymbolTableRecord
100
AcDbLayerTableRecord
  2
0
 70
0
 62
7
  6
Continuous
  0
LAYER
  5
101
330
2
100
AcDbSymbolTableRecord
100
AcDbLayerTableRecord
  2
OVERLAP
 70
0
 62
1
  6
Continuous
  0
LAYER
  5
102
330
2
100
AcDbSymbolTableRecord
100
AcDbLayerTableRecord
  2
TOUCH
 70
0
 62
2
  6
Continuous
  0
LAYER
  5
103
330
2
100
AcDbSymbolTableRecord
100
AcDbLayerTableRecord
  2
FRAME
 70
0
 62
3
  6
Continuous
  0
LAYER
  5
104
330
2
100
AcDbSymbolTableRecord
100
AcDbLayerTableRecord
  2
ARC
 70
0
 62
4
  6
Continuous
  0
LAYER
  5
105
330
2
100
AcDbSymbolTableRecord
100
AcDbLayerTableRecord
  2
SURVEY
 70
0
 62
5
  6
Continuous
  0
LAYER
  5
106
330
2
100
AcDbSymbolTableRecord
100
AcDbLayerTableRecord
  2
MANY
 70
0
 62
6
  6
Continuous
  0
ENDTAB
  0
TABLE
  2
BLOCK_RECORD
  5
1
100
AcDbSymbolTable
 70
2
  0
BLOCK_RECORD
  5
1F
330
1
100
AcDbSymbolTableRecord
100
AcDbBlockTableRecord
  2
*Model_Space
  0
BLOCK_RECORD
  5
1B
330
1
100
AcDbSymbolTableRecord
100
AcDbBlockTableRecord
  2
*Paper_Space
  0
ENDTAB
  0
ENDSEC
  0
SECTION
  2
BLOCKS
  0
BLOCK
  5
107
330
1F
100
AcDbEntity
  8
0
100
AcDbBlockBegin
  2
*Model_Space
 70
0
 10
0.0
 20
0.0
 30
0.0
  3
*Model_Space
  1

  0
ENDBLK
  5
108
330
1F
100
AcDbEntity
  8
0
100
AcDbBlockEnd
  0
BLOCK
  5
109
330
1B
100
AcDbEntity
 67
1
  8
0
100
AcDbBlockBegin
  2
*Paper_Space
 70
0
 10
0.0
 20
0.0
 30
0.0
  3
*Paper_Space
  1

  0
ENDBLK
  5
10A
330
1B
100
AcDbEntity
 67
1
  8
0
100
AcDbBlockEnd
  0
ENDSEC
  0
SECTION
  2
ENTITIES
  0
LWPOLYLINE
  5
10B
330
1F
100
AcDbEntity
  8
OVERLAP
100
AcDbPolyline
 90
4
 70
1
 43
0.0
 10
0.0
 20
0.0
 10
10.0
 20
0.0
 10
10.0
 20
10.0
 10
0.0
 20
10.0
  0
LWPOLYLINE
  5
10C
330
1F
100
AcDbEntity
  8
OVERLAP
100
AcDbPolyline
 90
4
 70
1
 43
0.0
 10
5.0
 20
5.0
 10
15.0
 20
5.0
 10
15.0
 20
15.0
 10
5.0
 20
15.0
  0
LWPOLYLINE
  5
10D
330
1F
100
AcDbEntity
  8
TOUCH
100
AcDbPolyline
 90
4
 70
1
 43
0.0
 10
0.0
 20
50.0
 10
10.0
 20
50.0
 10
10.0
 20
60.0
 10
0.0
 20
60.0
  0
LWPOLYLINE
  5
10E
330
1F
100
AcDbEntity
  8
TOUCH
100
AcDbPolyline
 90
4
 70
1
 43
0.0
 10
10.0
 20
50.0
 10
20.0
 20
50.0
 10
20.0
 20
60.0
 10
10.0
 20
60.0
  0
LWPOLYLINE
  5
10F
330
1F
100
AcDbEntity
  8
FRAME
100
AcDbPolyline
 90
4
 70
1
 43
0.0
 10
0.0
 20
100.0
 10
30.0
 20
100.0
 10
30.0
 20
110.0
 10
0.0
 20
110.0
  0
LWPOLYLINE
  5
110
330
1F
100
AcDbEntity
  8
FRAME
100
AcDbPolyline
 90
4
 70
1
 43
0.0
 10
0.0
 20
120.0
 10
30.0
 20
120.0
 10
30.0
 20
130.0
 10
0.0
 20
130.0
  0
LWPOLYLINE
  5
111
330
1F
100
AcDbEntity
  8
FRAME
100
AcDbPolyline
 90
4
 70
1
 43
0.0
 10
0.0
 20
100.0
 10
10.0
 20
100.0
 10
10.0
 20
130.0
 10
0.0
 20
130.0
  0
LWPOLYLINE
  5
112
330
1F
100
AcDbEntity
  8
FRAME
100
AcDbPolyline
 90
4
 70
1
 43
0.0
 10
20.0
 20
100.0
 10
30.0
 20
100.0
 10
30.0
 20
130.0
 10
20.0
 20
130.0
  0
LWPOLYLINE
  5
113
330
1F
100
AcDbEntity
  8
ARC
100
AcDbPolyline
 90
4
 70
1
 43
0.0
 10
0.0
 20
160.0
 42
1.0
 10
0.0
 20
150.0
 10
10.0
 20
150.0
 10
10.0
 20
160.0
  0
LWPOLYLINE
  5
114
330
1F
100
AcDbEntity
  8
ARC
100
AcDbPolyline
 90
4
 70
1
 43
0.0
 10
5.0
 20
150.0
 10
15.0
 20
150.0
 10
15.0
 20
155.0
 10
5.0
 20
155.0
  0
LWPOLYLINE
  5
115
330
1F
100
AcDbEntity
  8
SURVEY
100
AcDbPolyline
 90
4
 70
1
 43
0.0
 10
410000.0
 20
4495000.0
 10
410010.0
 20
4495000.0
 10
410010.0
 20
4495015.0
 10
410000.0
 20
4495015.0
  0
LWPOLYLINE
  5
116
330
1F
100
AcDbEntity
  8
SURVEY
100
AcDbPolyline
 90
4
 70
1
 43
0.0
 10
410005.0
 20
4495005.0
 10
410015.0
 20
4495005.0
 10
410015.0
 20
4495015.0
 10
410005.0
 20
4495015.0
  0
LWPOLYLINE
  5
117
330
1F
100
AcDbEntity
  8
MANY
100
AcDbPolyline
 90
4
 70
1
 43
0.0
 10
200.0
 20
0.0
 10
208.0
 20
0.0
 10
208.0
 20
8.0
 10
200.0
 20
8.0
  0
LWPOLYLINE
  5
118
330
1F
100
AcDbEntity
  8
MANY
100
AcDbPolyline
 90
4
 70
1
 43
0.0
 10
207.0
 20
0.0
 10
215.0
 20
0.0
 10
215.0
 20
8.0
 10
207.0
 20
8.0
  0
LWPOLYLINE
  5
119
330
1F
100
AcDbEntity
  8
MANY
100
AcDbPolyline
 90
4
 70
1
 43
0.0
 10
214.0
 20
0.0
 10
222.0
 20
0.0
 10
222.0
 20
8.0
 10
214.0
 20
8.0
  0
LWPOLYLINE
  5
11A
330
1F
100
AcDbEntity
  8
MANY
100
AcDbPolyline
 90
4
 70
1
 43
0.0
 10
221.0
 20
0.0
 10
229.0
 20
0.0
 10
229.0
 20
8.0
 10
221.0
 20
8.0
  0
LWPOLYLINE
  5
11B
330
1F
100
AcDbEntity
  8
MANY
100
AcDbPolyline
 90
4
 70
1
 43
0.0
 10
228.0
 20
0.0
 10
236.0
 20
0.0
 10
236.0
 20
8.0
 10
228.0
 20
8.0
  0
LWPOLYLINE
  5
11C
330
1F
100
AcDbEntity
  8
MANY
100
AcDbPolyline
 90
4
 70
1
 43
0.0
 10
235.0
 20
0.0
 10
243.0
 20
0.0
 10
243.0
 20
8.0
 10
235.0
 20
8.0
  0
LWPOLYLINE
  5
11D
330
1F
100
AcDbEntity
  8
MANY
100
AcDbPolyline
 90
4
 70
1
 43
0.0
 10
242.0
 20
0.0
 10
250.0
 20
0.0
 10
250.0
 20
8.0
 10
242.0
 20
8.0
  0
LWPOLYLINE
  5
11E
330
1F
100
AcDbEntity
  8
MANY
100
AcDbPolyline
 90
4
 70
1
 43
0.0
 10
249.0
 20
0.0
 10
257.0
 20
0.0
 10
257.0
 20
8.0
 10
249.0
 20
8.0
  0
LWPOLYLINE
  5
11F
330
1F
100
AcDbEntity
  8
MANY
100
AcDbPolyline
 90
4
 70
1
 43
0.0
 10
256.0
 20
0.0
 10
264.0
 20
0.0
 10
264.0
 20
8.0
 10
256.0
 20
8.0
  0
LWPOLYLINE
  5
120
330
1F
100
AcDbEntity
  8
MANY
100
AcDbPolyline
 90
4
 70
1
 43
0.0
 10
263.0
 20
0.0
 10
271.0
 20
0.0
 10
271.0
 20
8.0
 10
263.0
 20
8.0
  0
LWPOLYLINE
  5
121
330
1F
100
AcDbEntity
  8
MANY
100
AcDbPolyline
 90
4
 70
1
 43
0.0
 10
200.0
 20
7.0
 10
208.0
 20
7.0
 10
208.0
 20
15.0
 10
200.0
 20
15.0
  0
LWPOLYLINE
  5
122
330
1F
100
AcDbEntity
  8
MANY
100
AcDbPolyline
 90
4
 70
1
 43
0.0
 10
207.0
 20
7.0
 10
215.0
 20
7.0
 10
215.0
 20
15.0
 10
207.0
 20
15.0
  0
LWPOLYLINE
  5
123
330
1F
100
AcDbEntity
  8
MANY
100
AcDbPolyline
 90
4
 70
1
 43
0.0
 10
214.0
 20
7.0
 10
222.0
 20
7.0
 10
222.0
 20
15.0
 10
214.0
 20
15.0
  0
LWPOLYLINE
  5
124
330
1F
100
AcDbEntity
  8
MANY
100
AcDbPolyline
 90
4
 70
1
 43
0.0
 10
221.0
 20
7.0
 10
229.0
 20
7.0
 10
229.0
 20
15.0
 10
221.0
 20
15.0
  0
LWPOLYLINE
  5
125
330
1F
100
AcDbEntity
  8
MANY
100
AcDbPolyline
 90
4
 70
1
 43
0.0
 10
228.0
 20
7.0
 10
236.0
 20
7.0
 10
236.0
 20
15.0
 10
228.0
 20
15.0
  0
LWPOLYLINE
  5
126
330
1F
100
AcDbEntity
  8
MANY
100
AcDbPolyline
 90
4
 70
1
 43
0.0
 10
235.0
 20
7.0
 10
243.0
 20
7.0
 10
243.0
 20
15.0
 10
235.0
 20
15.0
  0
LWPOLYLINE
  5
127
330
1F
100
AcDbEntity
  8
MANY
100
AcDbPolyline
 90
4
 70
1
 43
0.0
 10
242.0
 20
7.0
 10
250.0
 20
7.0
 10
250.0
 20
15.0
 10
242.0
 20
15.0
  0
LWPOLYLINE
  5
128
330
1F
100
AcDbEntity
  8
MANY
100
AcDbPolyline
 90
4
 70
1
 43
0.0
 10
249.0
 20
7.0
 10
257.0
 20
7.0
 10
257.0
 20
15.0
 10
249.0
 20
15.0
  0
LWPOLYLINE
  5
129
330
1F
100
AcDbEntity
  8
MANY
100
AcDbPolyline
 90
4
 70
1
 43
0.0
 10
256.0
 20
7.0
 10
264.0
 20
7.0
 10
264.0
 20
15.0
 10
256.0
 20
15.0
  0
LWPOLYLINE
  5
12A
330
1F
100
AcDbEntity
  8
MANY
100
AcDbPolyline
 90
4
 70
1
 43
0.0
 10
263.0
 20
7.0
 10
271.0
 20
7.0
 10
271.0
 20
15.0
 10
263.0
 20
15.0
  0
LWPOLYLINE
  5
12B
330
1F
100
AcDbEntity
  8
MANY
100
AcDbPolyline
 90
4
 70
1
 43
0.0
 10
200.0
 20
14.0
 10
208.0
 20
14.0
 10
208.0
 20
22.0
 10
200.0
 20
22.0
  0
LWPOLYLINE
  5
12C
330
1F
100
AcDbEntity
  8
MANY
100
AcDbPolyline
 90
4
 70
1
 43
0.0
 10
207.0
 20
14.0
 10
215.0
 20
14.0
 10
215.0
 20
22.0
 10
207.0
 20
22.0
  0
LWPOLYLINE
  5
12D
330
1F
100
AcDbEntity
  8
MANY
100
AcDbPolyline
 90
4
 70
1
 43
0.0
 10
214.0
 20
14.0
 10
222.0
 20
14.0
 10
222.0
 20
22.0
 10
214.0
 20
22.0
  0
LWPOLYLINE
  5
12E
330
1F
100
AcDbEntity
  8
MANY
100
AcDbPolyline
 90
4
 70
1
 43
0.0
 10
221.0
 20
14.0
 10
229.0
 20
14.0
 10
229.0
 20
22.0
 10
221.0
 20
22.0
  0
LWPOLYLINE
  5
12F
330
1F
100
AcDbEntity
  8
MANY
100
AcDbPolyline
 90
4
 70
1
 43
0.0
 10
228.0
 20
14.0
 10
236.0
 20
14.0
 10
236.0
 20
22.0
 10
228.0
 20
22.0
  0
LWPOLYLINE
  5
130
330
1F
100
AcDbEntity
  8
MANY
100
AcDbPolyline
 90
4
 70
1
 43
0.0
 10
235.0
 20
14.0
 10
243.0
 20
14.0
 10
243.0
 20
22.0
 10
235.0
 20
22.0
  0
LWPOLYLINE
  5
131
330
1F
100
AcDbEntity
  8
MANY
100
AcDbPolyline
 90
4
 70
1
 43
0.0
 10
242.0
 20
14.0
 10
250.0
 20
14.0
 10
250.0
 20
22.0
 10
242.0
 20
22.0
  0
LWPOLYLINE
  5
132
330
1F
100
AcDbEntity
  8
MANY
100
AcDbPolyline
 90
4
 70
1
 43
0.0
 10
249.0
 20
14.0
 10
257.0
 20
14.0
 10
257.0
 20
22.0
 10
249.0
 20
22.0
  0
LWPOLYLINE
  5
133
330
1F
100
AcDbEntity
  8
MANY
100
AcDbPolyline
 90
4
 70
1
 43
0.0
 10
256.0
 20
14.0
 10
264.0
 20
14.0
 10
264.0
 20
22.0
 10
256.0
 20
22.0
  0
LWPOLYLINE
  5
134
330
1F
100
AcDbEntity
  8
MANY
100
AcDbPolyline
 90
4
 70
1
 43
0.0
 10
263.0
 20
14.0
 10
271.0
 20
14.0
 10
271.0
 20
22.0
 10
263.0
 20
22.0
  0
LWPOLYLINE
  5
135
330
1F
100
AcDbEntity
  8
MANY
100
AcDbPolyline
 90
4
 70
1
 43
0.0
 10
200.0
 20
21.0
 10
208.0
 20
21.0
 10
208.0
 20
29.0
 10
200.0
 20
29.0
  0
LWPOLYLINE
  5
136
330
1F
100
AcDbEntity
  8
MANY
100
AcDbPolyline
 90
4
 70
1
 43
0.0
 10
207.0
 20
21.0
 10
215.0
 20
21.0
 10
215.0
 20
29.0
 10
207.0
 20
29.0
  0
LWPOLYLINE
  5
137
330
1F
100
AcDbEntity
  8
MANY
100
AcDbPolyline
 90
4
 70
1
 43
0.0
 10
214.0
 20
21.0
 10
222.0
 20
21.0
 10
222.0
 20
29.0
 10
214.0
 20
29.0
  0
LWPOLYLINE
  5
138
330
1F
100
AcDbEntity
  8
MANY
100
AcDbPolyline
 90
4
 70
1
 43
0.0
 10
221.0
 20
21.0
 10
229.0
 20
21.0
 10
229.0
 20
29.0
 10
221.0
 20
29.0
  0
LWPOLYLINE
  5
139
330
1F
100
AcDbEntity
  8
MANY
100
AcDbPolyline
 90
4
 70
1
 43
0.0
 10
228.0
 20
21.0
 10
236.0
 20
21.0
 10
236.0
 20
29.0
 10
228.0
 20
29.0
  0
LWPOLYLINE
  5
13A
330
1F
100
AcDbEntity
  8
MANY
100
AcDbPolyline
 90
4
 70
1
 43
0.0
 10
235.0
 20
21.0
 10
243.0
 20
21.0
 10
243.0
 20
29.0
 10
235.0
 20
29.0
  0
LWPOLYLINE
  5
13B
330
1F
100
AcDbEntity
  8
MANY
100
AcDbPolyline
 90
4
 70
1
 43
0.0
 10
242.0
 20
21.0
 10
250.0
 20
21.0
 10
250.0
 20
29.0
 10
242.0
 20
29.0
  0
LWPOLYLINE
  5
13C
330
1F
100
AcDbEntity
  8
MANY
100
AcDbPolyline
 90
4
 70
1
 43
0.0
 10
249.0
 20
21.0
 10
257.0
 20
21.0
 10
257.0
 20
29.0
 10
249.0
 20
29.0
  0
LWPOLYLINE
  5
13D
330
1F
100
AcDbEntity
  8
MANY
100
AcDbPolyline
 90
4
 70
1
 43
0.0
 10
256.0
 20
21.0
 10
264.0
 20
21.0
 10
264.0
 20
29.0
 10
256.0
 20
29.0
  0
LWPOLYLINE
  5
13E
330
1F
100
AcDbEntity
  8
MANY
100
AcDbPolyline
 90
4
 70
1
 43
0.0
 10
263.0
 20
21.0
 10
271.0
 20
21.0
 10
271.0
 20
29.0
 10
263.0
 20
29.0
  0
LWPOLYLINE
  5
13F
330
1F
100
AcDbEntity
  8
MANY
100
AcDbPolyline
 90
4
 70
1
 43
0.0
 10
200.0
 20
28.0
 10
208.0
 20
28.0
 10
208.0
 20
36.0
 10
200.0
 20
36.0
  0
LWPOLYLINE
  5
140
330
1F
100
AcDbEntity
  8
MANY
100
AcDbPolyline
 90
4
 70
1
 43
0.0
 10
207.0
 20
28.0
 10
215.0
 20
28.0
 10
215.0
 20
36.0
 10
207.0
 20
36.0
  0
LWPOLYLINE
  5
141
330
1F
100
AcDbEntity
  8
MANY
100
AcDbPolyline
 90
4
 70
1
 43
0.0
 10
214.0
 20
28.0
 10
222.0
 20
28.0
 10
222.0
 20
36.0
 10
214.0
 20
36.0
  0
LWPOLYLINE
  5
142
330
1F
100
AcDbEntity
  8
MANY
100
AcDbPolyline
 90
4
 70
1
 43
0.0
 10
221.0
 20
28.0
 10
229.0
 20
28.0
 10
229.0
 20
36.0
 10
221.0
 20
36.0
  0
LWPOLYLINE
  5
143
330
1F
100
AcDbEntity
  8
MANY
100
AcDbPolyline
 90
4
 70
1
 43
0.0
 10
228.0
 20
28.0
 10
236.0
 20
28.0
 10
236.0
 20
36.0
 10
228.0
 20
36.0
  0
LWPOLYLINE
  5
144
330
1F
100
AcDbEntity
  8
MANY
100
AcDbPolyline
 90
4
 70
1
 43
0.0
 10
235.0
 20
28.0
 10
243.0
 20
28.0
 10
243.0
 20
36.0
 10
235.0
 20
36.0
  0
LWPOLYLINE
  5
145
330
1F
100
AcDbEntity
  8
MANY
100
AcDbPolyline
 90
4
 70
1
 43
0.0
 10
242.0
 20
28.0
 10
250.0
 20
28.0
 10
250.0
 20
36.0
 10
242.0
 20
36.0
  0
LWPOLYLINE
  5
146
330
1F
100
AcDbEntity
  8
MANY
100
AcDbPolyline
 90
4
 70
1
 43
0.0
 10
249.0
 20
28.0
 10
257.0
 20
28.0
 10
257.0
 20
36.0
 10
249.0
 20
36.0
  0
LWPOLYLINE
  5
147
330
1F
100
AcDbEntity
  8
MANY
100
AcDbPolyline
 90
4
 70
1
 43
0.0
 10
256.0
 20
28.0
 10
264.0
 20
28.0
 10
264.0
 20
36.0
 10
256.0
 20
36.0
  0
LWPOLYLINE
  5
148
330
1F
100
AcDbEntity
  8
MANY
100
AcDbPolyline
 90
4
 70
1
 43
0.0
 10
263.0
 20
28.0
 10
271.0
 20
28.0
 10
271.0
 20
36.0
 10
263.0
 20
36.0
  0
ENDSEC
  0
SECTION
  2
OBJECTS
  0
DICTIONARY
  5
C
330
0
100
AcDbDictionary
  0
ENDSEC
  0
EOF
