0
SECTION
2
HEADER
9
$ACADVER
1
AC1009
9
$DWGCODEPAGE
3
ANSI_1253
0
ENDSEC
0
SECTION
2
TABLES
0
TABLE
2
LTYPE
70
2
0
LTYPE
2
CONTINUOUS
70
0
3
Solid
72
65
73
0
40
0
0
LTYPE
2
DASHED
70
0
3
__ __
72
65
73
2
40
9
49
6
49
-3
0
ENDTAB
0
TABLE
2
LAYER
70
4
0
LAYER
2
0
70
0
62
7
6
CONTINUOUS
0
LAYER
2
CUT
70
0
62
7
6
CONTINUOUS
0
LAYER
2
BEND
70
0
62
30
6
DASHED
0
LAYER
2
MARK
70
0
62
5
6
CONTINUOUS
0
ENDTAB
0
ENDSEC
0
SECTION
2
BLOCKS
0
ENDSEC
0
SECTION
2
ENTITIES
0
LINE
8
CUT
10
0.0
20
0.0
30
0
11
200.0
21
0.0
31
0
0
LINE
8
CUT
10
200.0
20
0.0
30
0
11
200.0
21
100.0
31
0
0
LINE
8
CUT
10
200.0
20
100.0
30
0
11
0.0
21
100.0
31
0
0
LINE
8
CUT
10
0.0
20
100.0
30
0
11
0.0
21
0.15
31
0
0
LINE
8
CUT
10
0.0
20
0.0
30
0
11
200.0
21
0.0
31
0
0
LINE
8
CUT
10
20.0
20
30.0
30
0
11
60.0
21
30.0
31
0
0
LINE
8
CUT
10
60.0
20
30.0
30
0
11
60.0
21
70.0
31
0
0
LINE
8
CUT
10
60.0
20
70.0
30
0
11
20.0
21
70.0
31
0
0
LINE
8
CUT
10
20.0
20
70.0
30
0
11
20.0
21
30.0
31
0
0
CIRCLE
8
CUT
10
150.0
20
50.0
30
0
40
12.0
0
LINE
8
BEND
10
100.0
20
0.0
30
0
11
100.0
21
100.0
31
0
0
LINE
8
MARK
10
20.0
20
88.0
30
0
11
60.0
21
88.0
31
0
0
TEXT
8
MARK
10
20.0
20
8.0
30
0
40
6.0
1
йакулла й-01
0
ENDSEC
0
EOF
