ISO-10303-21;
HEADER;
FILE_DESCRIPTION(('ViewDefinition [ReferenceView_V1.2]'),'2;1');
FILE_NAME('example-house.ifc','2026-10-01T00:00:00',('AidedCAM'),('AidedCAM'),'','AidedCAM example generator','');
FILE_SCHEMA(('IFC4'));
ENDSEC;
DATA;
#1=IFCCARTESIANPOINT((0.,0.,0.));
#2=IFCDIRECTION((0.,0.,1.));
#3=IFCAXIS2PLACEMENT3D(#1,$,$);
#4=IFCSIUNIT(*,.LENGTHUNIT.,.MILLI.,.METRE.);
#5=IFCSIUNIT(*,.AREAUNIT.,$,.SQUARE_METRE.);
#6=IFCSIUNIT(*,.VOLUMEUNIT.,$,.CUBIC_METRE.);
#7=IFCSIUNIT(*,.PLANEANGLEUNIT.,$,.RADIAN.);
#8=IFCUNITASSIGNMENT((#4,#5,#6,#7));
#9=IFCGEOMETRICREPRESENTATIONCONTEXT($,'Model',3,0.00001,#3,$);
#10=IFCGEOMETRICREPRESENTATIONSUBCONTEXT('Body','Model',*,*,*,*,#9,$,.MODEL_VIEW.,$);
#11=IFCPROJECT('1AidedCAMexample000001',$,'AidedCAM example house',$,$,$,$,(#9),#8);
#12=IFCCARTESIANPOINT((120500.,80250.,0.));
#13=IFCAXIS2PLACEMENT3D(#12,$,$);
#14=IFCLOCALPLACEMENT($,#13);
#15=IFCSITE('1AidedCAMexample000002',$,'\X2\039F03B903BA03CC03C003B503B403BF\X0\',$,$,#14,$,$,.ELEMENT.,$,$,$,$,$);
#16=IFCCARTESIANPOINT((0.,0.,0.));
#17=IFCAXIS2PLACEMENT3D(#16,$,$);
#18=IFCLOCALPLACEMENT(#14,#17);
#19=IFCBUILDING('1AidedCAMexample000003',$,'\X2\039A03B103C403BF03B903BA03AF03B1\X0\',$,$,#18,$,$,.ELEMENT.,$,$,$);
#20=IFCRELAGGREGATES('1AidedCAMexample000004',$,$,$,#11,(#15));
#21=IFCRELAGGREGATES('1AidedCAMexample000005',$,$,$,#15,(#19));
#22=IFCCARTESIANPOINT((0.,0.,0.));
#23=IFCAXIS2PLACEMENT3D(#22,$,$);
#24=IFCLOCALPLACEMENT(#18,#23);
#25=IFCBUILDINGSTOREY('1AidedCAMexample000006',$,'\X2\039903C303CC03B303B503B903BF\X0\',$,$,#24,$,$,.ELEMENT.,0.);
#26=IFCCARTESIANPOINT((0.,0.,3000.));
#27=IFCAXIS2PLACEMENT3D(#26,$,$);
#28=IFCLOCALPLACEMENT(#18,#27);
#29=IFCBUILDINGSTOREY('1AidedCAMexample000007',$,'\X2\038C03C103BF03C603BF03C2\X0\ 1',$,$,#28,$,$,.ELEMENT.,3000.);
#30=IFCRELAGGREGATES('1AidedCAMexample000008',$,$,$,#19,(#25,#29));
#31=IFCCARTESIANPOINT((0.,0.,-250.));
#32=IFCAXIS2PLACEMENT3D(#31,$,$);
#33=IFCLOCALPLACEMENT(#24,#32);
#34=IFCCARTESIANPOINT((5000.,4050.));
#35=IFCAXIS2PLACEMENT2D(#34,$);
#36=IFCRECTANGLEPROFILEDEF(.AREA.,$,#35,10000.,8100.);
#37=IFCEXTRUDEDAREASOLID(#36,#3,#2,250.);
#38=IFCSHAPEREPRESENTATION(#10,'Body','SweptSolid',(#37));
#39=IFCPRODUCTDEFINITIONSHAPE($,$,(#38));
#40=IFCSLAB('1AidedCAMexample000009',$,'\X2\03A003BB03AC03BA03B1\X0\ \X2\03B903C303BF03B303B503AF03BF03C5\X0\',$,$,#33,#39,$,.BASESLAB.);
#41=IFCCARTESIANPOINT((0.,0.,0.));
#42=IFCAXIS2PLACEMENT3D(#41,$,$);
#43=IFCLOCALPLACEMENT(#24,#42);
#44=IFCCARTESIANPOINT((5000.,125.));
#45=IFCAXIS2PLACEMENT2D(#44,$);
#46=IFCRECTANGLEPROFILEDEF(.AREA.,$,#45,10000.,250.);
#47=IFCEXTRUDEDAREASOLID(#46,#3,#2,2750.);
#48=IFCSHAPEREPRESENTATION(#10,'Body','SweptSolid',(#47));
#49=IFCPRODUCTDEFINITIONSHAPE($,$,(#48));
#50=IFCWALL('1AidedCAMexample00000A',$,'\X2\03A403BF03AF03C703BF03C2\X0\ \X2\039D\X0\',$,$,#43,#49,$,.STANDARD.);
#51=IFCCARTESIANPOINT((0.,7850.,0.));
#52=IFCAXIS2PLACEMENT3D(#51,$,$);
#53=IFCLOCALPLACEMENT(#24,#52);
#54=IFCCARTESIANPOINT((5000.,125.));
#55=IFCAXIS2PLACEMENT2D(#54,$);
#56=IFCRECTANGLEPROFILEDEF(.AREA.,$,#55,10000.,250.);
#57=IFCEXTRUDEDAREASOLID(#56,#3,#2,2750.);
#58=IFCSHAPEREPRESENTATION(#10,'Body','SweptSolid',(#57));
#59=IFCPRODUCTDEFINITIONSHAPE($,$,(#58));
#60=IFCWALL('1AidedCAMexample00000B',$,'\X2\03A403BF03AF03C703BF03C2\X0\ \X2\0392\X0\',$,$,#53,#59,$,.STANDARD.);
#61=IFCCARTESIANPOINT((0.,250.,0.));
#62=IFCAXIS2PLACEMENT3D(#61,$,$);
#63=IFCLOCALPLACEMENT(#24,#62);
#64=IFCCARTESIANPOINT((125.,3800.));
#65=IFCAXIS2PLACEMENT2D(#64,$);
#66=IFCRECTANGLEPROFILEDEF(.AREA.,$,#65,250.,7600.);
#67=IFCEXTRUDEDAREASOLID(#66,#3,#2,2750.);
#68=IFCSHAPEREPRESENTATION(#10,'Body','SweptSolid',(#67));
#69=IFCPRODUCTDEFINITIONSHAPE($,$,(#68));
#70=IFCWALL('1AidedCAMexample00000C',$,'\X2\03A403BF03AF03C703BF03C2\X0\ \X2\0394\X0\',$,$,#63,#69,$,.STANDARD.);
#71=IFCCARTESIANPOINT((9750.,250.,0.));
#72=IFCAXIS2PLACEMENT3D(#71,$,$);
#73=IFCLOCALPLACEMENT(#24,#72);
#74=IFCCARTESIANPOINT((125.,3800.));
#75=IFCAXIS2PLACEMENT2D(#74,$);
#76=IFCRECTANGLEPROFILEDEF(.AREA.,$,#75,250.,7600.);
#77=IFCEXTRUDEDAREASOLID(#76,#3,#2,2750.);
#78=IFCSHAPEREPRESENTATION(#10,'Body','SweptSolid',(#77));
#79=IFCPRODUCTDEFINITIONSHAPE($,$,(#78));
#80=IFCWALL('1AidedCAMexample00000D',$,'\X2\03A403BF03AF03C703BF03C2\X0\ \X2\0391\X0\',$,$,#73,#79,$,.STANDARD.);
#81=IFCCARTESIANPOINT((6000.,250.,0.));
#82=IFCAXIS2PLACEMENT3D(#81,$,$);
#83=IFCLOCALPLACEMENT(#24,#82);
#84=IFCCARTESIANPOINT((50.,3800.));
#85=IFCAXIS2PLACEMENT2D(#84,$);
#86=IFCRECTANGLEPROFILEDEF(.AREA.,$,#85,100.,7600.);
#87=IFCEXTRUDEDAREASOLID(#86,#3,#2,2750.);
#88=IFCSHAPEREPRESENTATION(#10,'Body','SweptSolid',(#87));
#89=IFCPRODUCTDEFINITIONSHAPE($,$,(#88));
#90=IFCWALL('1AidedCAMexample00000E',$,'\X2\039503C303C903C403B503C103B903BA03CC03C2\X0\ \X2\03C403BF03AF03C703BF03C2\X0\',$,$,#83,#89,$,.STANDARD.);
#91=IFCCARTESIANPOINT((2000.,100.,0.));
#92=IFCAXIS2PLACEMENT3D(#91,$,$);
#93=IFCLOCALPLACEMENT(#24,#92);
#94=IFCCARTESIANPOINT((450.,25.));
#95=IFCAXIS2PLACEMENT2D(#94,$);
#96=IFCRECTANGLEPROFILEDEF(.AREA.,$,#95,900.,50.);
#97=IFCEXTRUDEDAREASOLID(#96,#3,#2,2100.);
#98=IFCSHAPEREPRESENTATION(#10,'Body','SweptSolid',(#97));
#99=IFCPRODUCTDEFINITIONSHAPE($,$,(#98));
#100=IFCDOOR('1AidedCAMexample00000F',$,'\X2\03A003CC03C103C403B1\X0\ \X2\03B503B903C303CC03B403BF03C5\X0\',$,$,#93,#99,$,2100.,900.,.DOOR.,.SINGLE_SWING_LEFT.,$);
#101=IFCCARTESIANPOINT((2000.,0.,0.));
#102=IFCAXIS2PLACEMENT3D(#101,$,$);
#103=IFCLOCALPLACEMENT(#43,#102);
#104=IFCCARTESIANPOINT((450.,125.));
#105=IFCAXIS2PLACEMENT2D(#104,$);
#106=IFCRECTANGLEPROFILEDEF(.AREA.,$,#105,900.,250.);
#107=IFCEXTRUDEDAREASOLID(#106,#3,#2,2100.);
#108=IFCSHAPEREPRESENTATION(#10,'Body','SweptSolid',(#107));
#109=IFCPRODUCTDEFINITIONSHAPE($,$,(#108));
#110=IFCOPENINGELEMENT('1AidedCAMexample00000G',$,'\X2\038603BD03BF03B903B303BC03B1\X0\',$,$,#103,#109,$,.OPENING.);
#111=IFCRELVOIDSELEMENT('1AidedCAMexample00000H',$,$,$,#50,#110);
#112=IFCRELFILLSELEMENT('1AidedCAMexample00000I',$,$,$,#110,#100);
#113=IFCCARTESIANPOINT((3000.,7940.,900.));
#114=IFCAXIS2PLACEMENT3D(#113,$,$);
#115=IFCLOCALPLACEMENT(#24,#114);
#116=IFCCARTESIANPOINT((750.,35.));
#117=IFCAXIS2PLACEMENT2D(#116,$);
#118=IFCRECTANGLEPROFILEDEF(.AREA.,$,#117,1500.,70.);
#119=IFCEXTRUDEDAREASOLID(#118,#3,#2,1200.);
#120=IFCSHAPEREPRESENTATION(#10,'Body','SweptSolid',(#119));
#121=IFCPRODUCTDEFINITIONSHAPE($,$,(#120));
#122=IFCWINDOW('1AidedCAMexample00000J',$,'\X2\03A003B103C103AC03B803C503C103BF\X0\ \X2\0392\X0\',$,$,#115,#121,$,1200.,1500.,.WINDOW.,.SINGLE_PANEL.,$);
#123=IFCCARTESIANPOINT((3000.,0.,900.));
#124=IFCAXIS2PLACEMENT3D(#123,$,$);
#125=IFCLOCALPLACEMENT(#53,#124);
#126=IFCCARTESIANPOINT((750.,125.));
#127=IFCAXIS2PLACEMENT2D(#126,$);
#128=IFCRECTANGLEPROFILEDEF(.AREA.,$,#127,1500.,250.);
#129=IFCEXTRUDEDAREASOLID(#128,#3,#2,1200.);
#130=IFCSHAPEREPRESENTATION(#10,'Body','SweptSolid',(#129));
#131=IFCPRODUCTDEFINITIONSHAPE($,$,(#130));
#132=IFCOPENINGELEMENT('1AidedCAMexample00000K',$,'\X2\038603BD03BF03B903B303BC03B1\X0\',$,$,#125,#131,$,.OPENING.);
#133=IFCRELVOIDSELEMENT('1AidedCAMexample00000L',$,$,$,#60,#132);
#134=IFCRELFILLSELEMENT('1AidedCAMexample00000M',$,$,$,#132,#122);
#135=IFCCARTESIANPOINT((2900.,5800.,0.));
#136=IFCAXIS2PLACEMENT3D(#135,$,$);
#137=IFCLOCALPLACEMENT(#24,#136);
#138=IFCCARTESIANPOINT((150.,150.));
#139=IFCAXIS2PLACEMENT2D(#138,$);
#140=IFCRECTANGLEPROFILEDEF(.AREA.,$,#139,300.,300.);
#141=IFCEXTRUDEDAREASOLID(#140,#3,#2,2750.);
#142=IFCSHAPEREPRESENTATION(#10,'Body','SweptSolid',(#141));
#143=IFCPRODUCTDEFINITIONSHAPE($,$,(#142));
#144=IFCCOLUMN('1AidedCAMexample00000N',$,'\X2\03A503C003BF03C303C403CD03BB03C903BC03B1\X0\',$,$,#137,#143,$,.COLUMN.);
#145=IFCCARTESIANPOINT((0.,0.));
#146=IFCCARTESIANPOINT((4000.,3000.));
#147=IFCCARTESIANPOINT((4000.,2700.));
#148=IFCCARTESIANPOINT((400.,0.));
#149=IFCCARTESIANPOINT((0.,0.));
#150=IFCPOLYLINE((#145,#146,#147,#148,#149));
#151=IFCARBITRARYCLOSEDPROFILEDEF(.AREA.,$,#150);
#152=IFCDIRECTION((1.,0.,0.));
#153=IFCDIRECTION((0.,1.,0.));
#154=IFCAXIS2PLACEMENT3D(#1,#152,#153);
#155=IFCEXTRUDEDAREASOLID(#151,#154,#2,900.);
#156=IFCCARTESIANPOINT((8700.,1500.,0.));
#157=IFCAXIS2PLACEMENT3D(#156,$,$);
#158=IFCLOCALPLACEMENT(#24,#157);
#159=IFCSHAPEREPRESENTATION(#10,'Body','SweptSolid',(#155));
#160=IFCPRODUCTDEFINITIONSHAPE($,$,(#159));
#161=IFCSTAIRFLIGHT('1AidedCAMexample00000O',$,'\X2\03A303BA03AC03BB03B1\X0\',$,$,#158,#160,$,16,15,187.5,266.67,.STRAIGHT.);
#162=IFCCARTESIANPOINT((250.,250.,0.));
#163=IFCAXIS2PLACEMENT3D(#162,$,$);
#164=IFCLOCALPLACEMENT(#24,#163);
#165=IFCCARTESIANPOINT((2875.,3800.));
#166=IFCAXIS2PLACEMENT2D(#165,$);
#167=IFCRECTANGLEPROFILEDEF(.AREA.,$,#166,5750.,7600.);
#168=IFCEXTRUDEDAREASOLID(#167,#3,#2,2750.);
#169=IFCSHAPEREPRESENTATION(#10,'Body','SweptSolid',(#168));
#170=IFCPRODUCTDEFINITIONSHAPE($,$,(#169));
#171=IFCSPACE('1AidedCAMexample00000P',$,'\X2\03A303B103BB03CC03BD03B9\X0\',$,$,#164,#170,$,.ELEMENT.,.INTERNAL.,$);
#172=IFCCARTESIANPOINT((6100.,250.,0.));
#173=IFCAXIS2PLACEMENT3D(#172,$,$);
#174=IFCLOCALPLACEMENT(#24,#173);
#175=IFCCARTESIANPOINT((1825.,3800.));
#176=IFCAXIS2PLACEMENT2D(#175,$);
#177=IFCRECTANGLEPROFILEDEF(.AREA.,$,#176,3650.,7600.);
#178=IFCEXTRUDEDAREASOLID(#177,#3,#2,2750.);
#179=IFCSHAPEREPRESENTATION(#10,'Body','SweptSolid',(#178));
#180=IFCPRODUCTDEFINITIONSHAPE($,$,(#179));
#181=IFCSPACE('1AidedCAMexample00000Q',$,'\X2\039A03BF03C503B603AF03BD03B1\X0\',$,$,#174,#180,$,.ELEMENT.,.INTERNAL.,$);
#182=IFCCARTESIANPOINT((0.,0.));
#183=IFCCARTESIANPOINT((10000.,0.));
#184=IFCCARTESIANPOINT((10000.,8100.));
#185=IFCCARTESIANPOINT((0.,8100.));
#186=IFCCARTESIANPOINT((0.,0.));
#187=IFCPOLYLINE((#182,#183,#184,#185,#186));
#188=IFCCARTESIANPOINT((8650.,1500.));
#189=IFCCARTESIANPOINT((9650.,1500.));
#190=IFCCARTESIANPOINT((9650.,5500.));
#191=IFCCARTESIANPOINT((8650.,5500.));
#192=IFCCARTESIANPOINT((8650.,1500.));
#193=IFCPOLYLINE((#188,#189,#190,#191,#192));
#194=IFCARBITRARYPROFILEDEFWITHVOIDS(.AREA.,'\X2\03A003BB03AC03BA03B1\X0\ \X2\03BC03B5\X0\ \X2\03BA03B503BD03CC\X0\ \X2\03BA03BB03AF03BC03B103BA03B103C2\X0\',#187,(#193));
#195=IFCEXTRUDEDAREASOLID(#194,#3,#2,250.);
#196=IFCCARTESIANPOINT((0.,0.,-250.));
#197=IFCAXIS2PLACEMENT3D(#196,$,$);
#198=IFCLOCALPLACEMENT(#28,#197);
#199=IFCSHAPEREPRESENTATION(#10,'Body','SweptSolid',(#195));
#200=IFCPRODUCTDEFINITIONSHAPE($,$,(#199));
#201=IFCSLAB('1AidedCAMexample00000R',$,'\X2\03A003BB03AC03BA03B1\X0\ \X2\03BF03C103CC03C603BF03C5\X0\',$,$,#198,#200,$,.FLOOR.);
#202=IFCCARTESIANPOINT((0.,0.,0.));
#203=IFCAXIS2PLACEMENT3D(#202,$,$);
#204=IFCLOCALPLACEMENT(#28,#203);
#205=IFCCARTESIANPOINT((5000.,125.));
#206=IFCAXIS2PLACEMENT2D(#205,$);
#207=IFCRECTANGLEPROFILEDEF(.AREA.,$,#206,10000.,250.);
#208=IFCEXTRUDEDAREASOLID(#207,#3,#2,2750.);
#209=IFCSHAPEREPRESENTATION(#10,'Body','SweptSolid',(#208));
#210=IFCPRODUCTDEFINITIONSHAPE($,$,(#209));
#211=IFCWALL('1AidedCAMexample00000S',$,'\X2\03A403BF03AF03C703BF03C2\X0\ \X2\039D\X0\',$,$,#204,#210,$,.STANDARD.);
#212=IFCCARTESIANPOINT((0.,7850.,0.));
#213=IFCAXIS2PLACEMENT3D(#212,$,$);
#214=IFCLOCALPLACEMENT(#28,#213);
#215=IFCCARTESIANPOINT((5000.,125.));
#216=IFCAXIS2PLACEMENT2D(#215,$);
#217=IFCRECTANGLEPROFILEDEF(.AREA.,$,#216,10000.,250.);
#218=IFCEXTRUDEDAREASOLID(#217,#3,#2,2750.);
#219=IFCSHAPEREPRESENTATION(#10,'Body','SweptSolid',(#218));
#220=IFCPRODUCTDEFINITIONSHAPE($,$,(#219));
#221=IFCWALL('1AidedCAMexample00000T',$,'\X2\03A403BF03AF03C703BF03C2\X0\ \X2\0392\X0\',$,$,#214,#220,$,.STANDARD.);
#222=IFCCARTESIANPOINT((0.,250.,0.));
#223=IFCAXIS2PLACEMENT3D(#222,$,$);
#224=IFCLOCALPLACEMENT(#28,#223);
#225=IFCCARTESIANPOINT((125.,3800.));
#226=IFCAXIS2PLACEMENT2D(#225,$);
#227=IFCRECTANGLEPROFILEDEF(.AREA.,$,#226,250.,7600.);
#228=IFCEXTRUDEDAREASOLID(#227,#3,#2,2750.);
#229=IFCSHAPEREPRESENTATION(#10,'Body','SweptSolid',(#228));
#230=IFCPRODUCTDEFINITIONSHAPE($,$,(#229));
#231=IFCWALL('1AidedCAMexample00000U',$,'\X2\03A403BF03AF03C703BF03C2\X0\ \X2\0394\X0\',$,$,#224,#230,$,.STANDARD.);
#232=IFCCARTESIANPOINT((9750.,250.,0.));
#233=IFCAXIS2PLACEMENT3D(#232,$,$);
#234=IFCLOCALPLACEMENT(#28,#233);
#235=IFCCARTESIANPOINT((125.,3800.));
#236=IFCAXIS2PLACEMENT2D(#235,$);
#237=IFCRECTANGLEPROFILEDEF(.AREA.,$,#236,250.,7600.);
#238=IFCEXTRUDEDAREASOLID(#237,#3,#2,2750.);
#239=IFCSHAPEREPRESENTATION(#10,'Body','SweptSolid',(#238));
#240=IFCPRODUCTDEFINITIONSHAPE($,$,(#239));
#241=IFCWALL('1AidedCAMexample00000V',$,'\X2\03A403BF03AF03C703BF03C2\X0\ \X2\0391\X0\',$,$,#234,#240,$,.STANDARD.);
#242=IFCCARTESIANPOINT((5000.,250.,0.));
#243=IFCAXIS2PLACEMENT3D(#242,$,$);
#244=IFCLOCALPLACEMENT(#28,#243);
#245=IFCCARTESIANPOINT((50.,3800.));
#246=IFCAXIS2PLACEMENT2D(#245,$);
#247=IFCRECTANGLEPROFILEDEF(.AREA.,$,#246,100.,7600.);
#248=IFCEXTRUDEDAREASOLID(#247,#3,#2,2750.);
#249=IFCSHAPEREPRESENTATION(#10,'Body','SweptSolid',(#248));
#250=IFCPRODUCTDEFINITIONSHAPE($,$,(#249));
#251=IFCWALL('1AidedCAMexample00000W',$,'\X2\039503C303C903C403B503C103B903BA03CC03C2\X0\ \X2\03C403BF03AF03C703BF03C2\X0\',$,$,#244,#250,$,.STANDARD.);
#252=IFCCARTESIANPOINT((4000.,90.,900.));
#253=IFCAXIS2PLACEMENT3D(#252,$,$);
#254=IFCLOCALPLACEMENT(#28,#253);
#255=IFCCARTESIANPOINT((750.,35.));
#256=IFCAXIS2PLACEMENT2D(#255,$);
#257=IFCRECTANGLEPROFILEDEF(.AREA.,$,#256,1500.,70.);
#258=IFCEXTRUDEDAREASOLID(#257,#3,#2,1200.);
#259=IFCSHAPEREPRESENTATION(#10,'Body','SweptSolid',(#258));
#260=IFCPRODUCTDEFINITIONSHAPE($,$,(#259));
#261=IFCWINDOW('1AidedCAMexample00000X',$,'\X2\03A003B103C103AC03B803C503C103BF\X0\ \X2\039D\X0\',$,$,#254,#260,$,1200.,1500.,.WINDOW.,.SINGLE_PANEL.,$);
#262=IFCCARTESIANPOINT((4000.,0.,900.));
#263=IFCAXIS2PLACEMENT3D(#262,$,$);
#264=IFCLOCALPLACEMENT(#204,#263);
#265=IFCCARTESIANPOINT((750.,125.));
#266=IFCAXIS2PLACEMENT2D(#265,$);
#267=IFCRECTANGLEPROFILEDEF(.AREA.,$,#266,1500.,250.);
#268=IFCEXTRUDEDAREASOLID(#267,#3,#2,1200.);
#269=IFCSHAPEREPRESENTATION(#10,'Body','SweptSolid',(#268));
#270=IFCPRODUCTDEFINITIONSHAPE($,$,(#269));
#271=IFCOPENINGELEMENT('1AidedCAMexample00000Y',$,'\X2\038603BD03BF03B903B303BC03B1\X0\',$,$,#264,#270,$,.OPENING.);
#272=IFCRELVOIDSELEMENT('1AidedCAMexample00000Z',$,$,$,#211,#271);
#273=IFCRELFILLSELEMENT('1AidedCAMexample00000a',$,$,$,#271,#261);
#274=IFCCARTESIANPOINT((8600.,1500.,0.));
#275=IFCAXIS2PLACEMENT3D(#274,$,$);
#276=IFCLOCALPLACEMENT(#28,#275);
#277=IFCCARTESIANPOINT((25.,2000.));
#278=IFCAXIS2PLACEMENT2D(#277,$);
#279=IFCRECTANGLEPROFILEDEF(.AREA.,$,#278,50.,4000.);
#280=IFCEXTRUDEDAREASOLID(#279,#3,#2,1200.);
#281=IFCSHAPEREPRESENTATION(#10,'Body','SweptSolid',(#280));
#282=IFCPRODUCTDEFINITIONSHAPE($,$,(#281));
#283=IFCRAILING('1AidedCAMexample00000b',$,'\X2\039A03B903B303BA03BB03AF03B403C903BC03B1\X0\',$,$,#276,#282,$,.GUARDRAIL.);
#284=IFCCARTESIANPOINT((0.,0.,2750.));
#285=IFCAXIS2PLACEMENT3D(#284,$,$);
#286=IFCLOCALPLACEMENT(#28,#285);
#287=IFCCARTESIANPOINT((5000.,4050.));
#288=IFCAXIS2PLACEMENT2D(#287,$);
#289=IFCRECTANGLEPROFILEDEF(.AREA.,$,#288,10000.,8100.);
#290=IFCEXTRUDEDAREASOLID(#289,#3,#2,250.);
#291=IFCSHAPEREPRESENTATION(#10,'Body','SweptSolid',(#290));
#292=IFCPRODUCTDEFINITIONSHAPE($,$,(#291));
#293=IFCSLAB('1AidedCAMexample00000c',$,'\X2\03A003BB03AC03BA03B1\X0\ \X2\03BF03C103BF03C603AE03C2\X0\',$,$,#286,#292,$,.ROOF.);
#294=IFCCARTESIANPOINT((250.,250.,0.));
#295=IFCAXIS2PLACEMENT3D(#294,$,$);
#296=IFCLOCALPLACEMENT(#28,#295);
#297=IFCCARTESIANPOINT((2375.,3800.));
#298=IFCAXIS2PLACEMENT2D(#297,$);
#299=IFCRECTANGLEPROFILEDEF(.AREA.,$,#298,4750.,7600.);
#300=IFCEXTRUDEDAREASOLID(#299,#3,#2,2750.);
#301=IFCSHAPEREPRESENTATION(#10,'Body','SweptSolid',(#300));
#302=IFCPRODUCTDEFINITIONSHAPE($,$,(#301));
#303=IFCSPACE('1AidedCAMexample00000d',$,'1.01',$,$,#296,#302,'\X2\03A503C003BD03BF03B403C903BC03AC03C403B903BF\X0\',.ELEMENT.,.INTERNAL.,$);
#304=IFCRELCONTAINEDINSPATIALSTRUCTURE('1AidedCAMexample00000e',$,$,$,(#40,#50,#60,#70,#80,#90,#100,#122,#144,#161),#25);
#305=IFCRELAGGREGATES('1AidedCAMexample00000f',$,$,$,#25,(#171,#181));
#306=IFCRELCONTAINEDINSPATIALSTRUCTURE('1AidedCAMexample00000g',$,$,$,(#201,#211,#221,#231,#241,#251,#261,#283,#293),#29);
#307=IFCRELAGGREGATES('1AidedCAMexample00000h',$,$,$,#29,(#303));
#308=IFCQUANTITYAREA('GrossFloorArea',$,$,43.7,$);
#309=IFCQUANTITYAREA('NetFloorArea',$,$,43.61,$);
#310=IFCELEMENTQUANTITY('1AidedCAMexample00000i',$,'Qto_SpaceBaseQuantities',$,$,(#308,#309));
#311=IFCRELDEFINESBYPROPERTIES('1AidedCAMexample00000j',$,$,$,(#171),#310);
ENDSEC;
END-ISO-10303-21;
